<?xml version="1.0" standalone="no"?><!DOCTYPE svg PUBLIC "-//W3C//DTD SVG 1.1//EN" "http://www.w3.org/Graphics/SVG/1.1/DTD/svg11.dtd"><svg t="1594544610882" class="icon" viewBox="0 0 1024 1024" version="1.1" xmlns="http://www.w3.org/2000/svg" p-id="3840" xmlns:xlink="http://www.w3.org/1999/xlink" width="32" height="32"><defs><style type="text/css"></style></defs><path d="M919.04 743.68H321.536s-12.8-3.584-27.904-44.8c0 0 463.872-3.072 544.512-25.6 98.048-27.136 116.224-95.488 118.016-102.4 14.336-64.512 60.416-279.552 47.104-335.872C988.416 168.704 921.6 153.6 888.064 154.88H227.584a194.56 194.56 0 0 0-6.4-28.928C191.488 35.84 92.928 21.248 45.056 25.6a38.4 38.4 0 0 0 7.936 76.8c3.328 0 76.8-6.656 95.232 47.616a1234.688 1234.688 0 0 1 15.872 162.304c19.712 297.216 42.496 507.648 157.44 507.648H919.04a38.4 38.4 0 0 0 0-76.8z m-218.88-415.232a42.24 42.24 0 0 1 84.736 0v189.44a42.24 42.24 0 0 1-84.736 0z m-153.6 0a42.24 42.24 0 0 1 84.736 0v189.44a42.24 42.24 0 0 1-84.736 0z m-153.6 0a42.24 42.24 0 0 1 84.736 0v189.44a42.24 42.24 0 0 1-84.736 0z" fill="#d81e06" p-id="3841"></path><path d="M342.016 934.4m-64 0a64 64 0 1 0 128 0 64 64 0 1 0-128 0Z" fill="#d81e06" p-id="3842"></path><path d="M813.568 934.4m-64 0a64 64 0 1 0 128 0 64 64 0 1 0-128 0Z" fill="#d81e06" p-id="3843"></path></svg>