<?xml version="1.0" standalone="no"?><!DOCTYPE svg PUBLIC "-//W3C//DTD SVG 1.1//EN" "http://www.w3.org/Graphics/SVG/1.1/DTD/svg11.dtd"><svg t="1594862342523" class="icon" viewBox="0 0 1024 1024" version="1.1" xmlns="http://www.w3.org/2000/svg" p-id="2345" xmlns:xlink="http://www.w3.org/1999/xlink" width="32" height="32"><defs><style type="text/css"></style></defs><path d="M803.040452 933.207902c-64.60207 0-140.342427-0.361242-203.439323-0.662276-51.71778 0-92.5381-0.421449-107.770461-0.361242h-2.950141c-224.933208 0-413.200376-181.88523-420.365005-406.758232a418.558796 418.558796 0 0 1 109.516463-297.181561 29.200376 29.200376 0 0 1 43.168391 39.375353 360.459078 360.459078 0 0 0-94.344308 255.759172c6.020696 193.625588 168.579492 350.223895 361.964252 350.223894h2.588899c15.593603 0 56.594544 0 108.372531 0.361242 73.392286 0.361242 172.19191 0.842897 244.801505 0.60207-38.412041-45.335842-62.61524-121.678269-7.586077-263.947319 13.66698-35.281279 14.449671-76.462841 13.66698-108.372531a362.385701 362.385701 0 0 0-462.871119-338.603951 29.200376 29.200376 0 1 1-16.25588-56.112888A420.786453 420.786453 0 0 1 909.125118 500.681091c0.963311 37.388523 0 86.095955-17.580433 131.010348-66.709313 172.312324-0.481656 214.035748 47.683913 244.440264l3.190969 1.986829a29.200376 29.200376 0 0 1-15.232361 53.885231c-24.082785 0.722484-70.321731 1.204139-124.146754 1.204139z" fill="#d81e06" p-id="2346"></path><path d="M276.952023 211.627469a29.200376 29.200376 0 0 1-15.834431-53.764816q5.53904-3.552211 11.198495-6.984008a29.200376 29.200376 0 0 1 30.10348 50.031985q-4.876764 2.950141-9.633114 6.020696a29.079962 29.079962 0 0 1-15.83443 4.696143z" fill="#d81e06" p-id="2347"></path><path d="M305.490122 529.03857m-51.537159 0a51.537159 51.537159 0 1 0 103.074318 0 51.537159 51.537159 0 1 0-103.074318 0Z" fill="#d81e06" p-id="2348"></path><path d="M493.57667 529.03857m-51.537159 0a51.537159 51.537159 0 1 0 103.074318 0 51.537159 51.537159 0 1 0-103.074318 0Z" fill="#d81e06" p-id="2349"></path><path d="M687.322672 529.03857m-51.537159 0a51.537159 51.537159 0 1 0 103.074318 0 51.537159 51.537159 0 1 0-103.074318 0Z" fill="#d81e06" p-id="2350"></path></svg>