<?xml version="1.0" standalone="no"?><!DOCTYPE svg PUBLIC "-//W3C//DTD SVG 1.1//EN" "http://www.w3.org/Graphics/SVG/1.1/DTD/svg11.dtd"><svg t="1594544090137" class="icon" viewBox="0 0 1024 1024" version="1.1" xmlns="http://www.w3.org/2000/svg" p-id="9509" xmlns:xlink="http://www.w3.org/1999/xlink" width="32" height="32"><defs><style type="text/css"></style></defs><path d="M981.756057 314.250604A511.019565 511.019565 0 0 0 708.598451 40.666722a506.842061 506.842061 0 0 0-197.792024-39.64366h-2.216634a508.120889 508.120889 0 0 0-360.629423 151.157439A508.120889 508.120889 0 0 0 39.686288 315.188411a514.600283 514.600283 0 0 0 15.686953 427.981017v173.494297c0 28.986762 23.445175 52.517193 52.431938 52.517192H280.958455a511.190076 511.190076 0 0 0 227.801848 54.819083h2.387145a509.570227 509.570227 0 0 0 196.768962-39.217384 505.98951 505.98951 0 0 0 162.666889-108.700358c46.805095-46.378819 84.146865-101.453667 109.979185-161.984847 26.855383-63.088835 40.496212-130.099409 40.922488-199.326618a513.747731 513.747731 0 0 0-39.81417-200.520189z" fill="#F64F52" p-id="9510"></path><path d="M469.031388 679.995338H337.397386a36.062942 36.062942 0 0 1-28.304721-15.345933 66.669553 66.669553 0 0 1-11.935726-31.032887 49.19224 49.19224 0 0 1 11.935726-27.9637 40.496212 40.496212 0 0 1 28.304721-12.276746h131.634002v-42.968612l-131.634002-0.682042a39.217384 39.217384 0 0 1-28.304721-12.958787 53.455 53.455 0 0 1-11.935726-29.327783 49.19224 49.19224 0 0 1 11.935726-27.9637 40.496212 40.496212 0 0 1 28.304721-12.276747h98.21397L344.2178 306.236616a102.64724 102.64724 0 0 1-12.958787-20.802264 56.268421 56.268421 0 0 1-5.456332-27.622679 63.941387 63.941387 0 0 1 13.640829-31.032887c6.820415-7.928732 19.608692-13.044043 38.194322-15.345933 10.912663 0.852552 20.717009 4.689035 29.327783 11.253684 8.610773 6.564649 15.686954 13.726084 21.143285 21.484306l103.670302 189.607527 113.900925-190.97161a82.612272 82.612272 0 0 1 21.143285-20.461243 65.47598 65.47598 0 0 1 29.327783-10.912664c6.820415 0.426276 13.044043 1.364083 18.75614 2.728166a41.178253 41.178253 0 0 1 15.004912 6.820415c4.262759 3.154442 7.928732 7.672966 10.912663 13.640829a76.729664 76.729664 0 0 1 6.479394 23.18941 60.53118 60.53118 0 0 1-13.640829 37.51228L627.947049 467.198401h100.260094c11.85047 0.852552 21.143285 5.030056 27.9637 12.276747 6.820415 7.246691 10.656898 16.624761 11.594705 27.9637a50.641579 50.641579 0 0 1-11.935725 30.009824 39.728915 39.728915 0 0 1-28.304721 13.640829L597.255183 551.771543v41.604529h130.95196c11.85047 0.852552 21.143285 5.456332 27.9637 13.640829 6.820415 8.184498 10.656898 17.903588 11.594705 29.327783a50.215303 50.215303 0 0 1-11.594705 29.668804 39.132129 39.132129 0 0 1-27.9637 13.299808L597.255183 678.631255v72.296395c-1.790359 38.620598-23.018899 57.973524-63.429856 57.973524-20.034968 0-35.551411-4.77429-46.71984-14.322871-11.083174-9.54858-17.136292-24.127217-18.074099-43.650653v-70.932312z" fill="#FFFFFF" p-id="9511"></path></svg>